<?xml version="1.0" standalone="no"?>
<!DOCTYPE svg PUBLIC "-//W3C//DTD SVG 20010904//EN">
<svg version="1.0" xmlns="http://www.w3.org/2000/svg"
 width="700.000000pt" height="700.000000pt" viewBox="0 0 700.000000 700.000000"
 preserveAspectRatio="xMidYMid meet">
<metadata>
Created by potrace 1.14, written by Peter Selinger 2001-2017
</metadata>
<g transform="translate(0.000000,700.000000) scale(0.100000,-0.100000)"
fill="#000000" stroke="none">
<path d="M2935 5806 c-60 -28 -87 -56 -114 -116 -20 -45 -21 -54 -21 -1890 0
-1309 3 -1856 11 -1885 20 -72 91 -141 162 -159 51 -12 1023 -8 1067 5 56 17
109 65 136 123 l24 51 0 1856 0 1855 -26 52 c-30 60 -79 104 -133 121 -27 7
-195 11 -547 11 l-509 0 -50 -24z"/>
<path d="M1438 4653 c-56 -16 -113 -68 -140 -130 -21 -47 -21 -49 -21 -1308 0
-893 4 -1272 11 -1300 16 -56 67 -114 126 -141 l51 -24 515 0 c577 1 559 -1
633 75 68 70 64 -11 64 1373 0 735 -3 1270 -9 1296 -11 53 -65 118 -122 149
-41 21 -47 21 -552 23 -395 0 -521 -2 -556 -13z"/>
<path d="M4478 3490 c-43 -13 -94 -48 -114 -78 -55 -81 -53 -41 -53 -777 -1
-761 -3 -741 69 -813 74 -73 60 -72 639 -69 284 1 523 5 531 8 67 23 110 64
140 131 20 47 21 60 21 736 -1 750 1 722 -58 792 -15 18 -50 43 -78 56 l-50
24 -510 -1 c-280 0 -522 -4 -537 -9z"/>
</g>
</svg>
